<?xml version="1.0" encoding="UTF-8" standalone="no"?>
<!DOCTYPE svg PUBLIC "-//W3C//DTD SVG 1.1//EN"
 "http://www.w3.org/Graphics/SVG/1.1/DTD/svg11.dtd">
<!-- Generated by graphviz version 14.0.4 (20251115.1723)
 -->
<!-- Title: KeywordPortfolioModel Pages: 1 -->
<svg width="927pt" height="470pt"
 viewBox="0.00 0.00 927.00 470.00" xmlns="http://www.w3.org/2000/svg" xmlns:xlink="http://www.w3.org/1999/xlink">
<g id="graph0" class="graph" transform="scale(1 1) rotate(0) translate(18 452)">
<title>KeywordPortfolioModel</title>
<polygon fill="white" stroke="none" points="-18,18 -18,-452 908.5,-452 908.5,18 -18,18"/>
<!-- Query -->
<g id="node1" class="node">
<title>Query</title>
<path fill="#f8fafc" stroke="#1f2937" d="M658.5,-434C658.5,-434 600.5,-434 600.5,-434 594.5,-434 588.5,-428 588.5,-422 588.5,-422 588.5,-410 588.5,-410 588.5,-404 594.5,-398 600.5,-398 600.5,-398 658.5,-398 658.5,-398 664.5,-398 670.5,-404 670.5,-410 670.5,-410 670.5,-422 670.5,-422 670.5,-428 664.5,-434 658.5,-434"/>
<text xml:space="preserve" text-anchor="middle" x="629.5" y="-411.55" font-family="Helvetica,sans-Serif" font-size="11.00">seovoc:Query</text>
</g>
<!-- Persona -->
<g id="node3" class="node">
<title>Persona</title>
<path fill="#f8fafc" stroke="#1f2937" d="M878.5,-400C878.5,-400 809.25,-400 809.25,-400 803.25,-400 797.25,-394 797.25,-388 797.25,-388 797.25,-376 797.25,-376 797.25,-370 803.25,-364 809.25,-364 809.25,-364 878.5,-364 878.5,-364 884.5,-364 890.5,-370 890.5,-376 890.5,-376 890.5,-388 890.5,-388 890.5,-394 884.5,-400 878.5,-400"/>
<text xml:space="preserve" text-anchor="middle" x="843.88" y="-377.55" font-family="Helvetica,sans-Serif" font-size="11.00">seovoc:Persona</text>
</g>
<!-- Query&#45;&gt;Persona -->
<g id="edge11" class="edge">
<title>Query&#45;&gt;Persona</title>
<path fill="none" stroke="#0f766e" stroke-width="1.5" d="M670.95,-409.52C703.84,-404.26 750.6,-396.77 787.06,-390.94"/>
<polygon fill="#0f766e" stroke="#0f766e" stroke-width="1.5" points="787.35,-393.72 794.81,-389.7 786.47,-388.2 787.35,-393.72"/>
<text xml:space="preserve" text-anchor="middle" x="733.88" y="-406.75" font-family="Helvetica,sans-Serif" font-size="10.00" fill="#0f766e">hasTargetPersona</text>
</g>
<!-- WebPage -->
<g id="node2" class="node">
<title>WebPage</title>
<path fill="#f8fafc" stroke="#1f2937" d="M388.25,-376C388.25,-376 311.5,-376 311.5,-376 305.5,-376 299.5,-370 299.5,-364 299.5,-364 299.5,-352 299.5,-352 299.5,-346 305.5,-340 311.5,-340 311.5,-340 388.25,-340 388.25,-340 394.25,-340 400.25,-346 400.25,-352 400.25,-352 400.25,-364 400.25,-364 400.25,-370 394.25,-376 388.25,-376"/>
<text xml:space="preserve" text-anchor="middle" x="349.88" y="-353.55" font-family="Helvetica,sans-Serif" font-size="11.00">seovoc:WebPage</text>
</g>
<!-- WebPage&#45;&gt;Query -->
<g id="edge1" class="edge">
<title>WebPage&#45;&gt;Query</title>
<path fill="none" stroke="#334155" d="M400.51,-368.37C451.02,-378.92 528.84,-395.18 579.22,-405.71"/>
<polygon fill="#334155" stroke="#334155" points="578.41,-408.4 586.82,-407.29 579.56,-402.91 578.41,-408.4"/>
<text xml:space="preserve" text-anchor="middle" x="501.12" y="-403.73" font-family="Helvetica,sans-Serif" font-size="10.00">hasQuery / hasPrimaryQuery</text>
</g>
<!-- WebPage&#45;&gt;Persona -->
<g id="edge2" class="edge">
<title>WebPage&#45;&gt;Persona</title>
<path fill="none" stroke="#334155" d="M400.72,-359.6C463.62,-361.7 575.11,-365.74 670.5,-370.75 709.65,-372.81 753.76,-375.7 787.55,-378.03"/>
<polygon fill="#334155" stroke="#334155" points="787.12,-380.81 795.29,-378.57 787.5,-375.22 787.12,-380.81"/>
<text xml:space="preserve" text-anchor="middle" x="629.5" y="-372.5" font-family="Helvetica,sans-Serif" font-size="10.00">hasPersona</text>
</g>
<!-- URL -->
<g id="node4" class="node">
<title>URL</title>
<path fill="#f8fafc" stroke="#1f2937" d="M655.12,-291C655.12,-291 603.88,-291 603.88,-291 597.88,-291 591.88,-285 591.88,-279 591.88,-279 591.88,-267 591.88,-267 591.88,-261 597.88,-255 603.88,-255 603.88,-255 655.12,-255 655.12,-255 661.12,-255 667.12,-261 667.12,-267 667.12,-267 667.12,-279 667.12,-279 667.12,-285 661.12,-291 655.12,-291"/>
<text xml:space="preserve" text-anchor="middle" x="629.5" y="-268.55" font-family="Helvetica,sans-Serif" font-size="11.00">seovoc:URL</text>
</g>
<!-- WebPage&#45;&gt;URL -->
<g id="edge3" class="edge">
<title>WebPage&#45;&gt;URL</title>
<path fill="none" stroke="#334155" d="M387.45,-339.62C402.74,-332.43 420.84,-324.54 437.75,-318.75 486.22,-302.15 543.6,-289.26 582.67,-281.46"/>
<polygon fill="#334155" stroke="#334155" points="582.91,-284.26 590.22,-279.97 581.83,-278.77 582.91,-284.26"/>
<text xml:space="preserve" text-anchor="middle" x="501.12" y="-320.5" font-family="Helvetica,sans-Serif" font-size="10.00">hasURL</text>
</g>
<!-- KeywordPortfolioEntry -->
<g id="node5" class="node">
<title>KeywordPortfolioEntry</title>
<path fill="#ecfeff" stroke="#0e7490" d="M148.75,-240C148.75,-240 12,-240 12,-240 6,-240 0,-234 0,-228 0,-228 0,-216 0,-216 0,-210 6,-204 12,-204 12,-204 148.75,-204 148.75,-204 154.75,-204 160.75,-210 160.75,-216 160.75,-216 160.75,-228 160.75,-228 160.75,-234 154.75,-240 148.75,-240"/>
<text xml:space="preserve" text-anchor="middle" x="80.38" y="-217.55" font-family="Helvetica,sans-Serif" font-size="11.00">seovoc:KeywordPortfolioEntry</text>
</g>
<!-- KeywordPortfolioEntry&#45;&gt;Query -->
<g id="edge4" class="edge">
<title>KeywordPortfolioEntry&#45;&gt;Query</title>
<path fill="none" stroke="#334155" d="M93.98,-240.3C111.88,-265.28 146.75,-310.33 184.75,-340 224.62,-371.13 238.17,-375.53 286,-392 403.67,-432.52 440.15,-425.85 564.5,-421 569.18,-420.82 574.05,-420.56 578.92,-420.26"/>
<polygon fill="#334155" stroke="#334155" points="578.94,-423.06 586.73,-419.73 578.56,-417.48 578.94,-423.06"/>
<text xml:space="preserve" text-anchor="middle" x="349.88" y="-424.38" font-family="Helvetica,sans-Serif" font-size="10.00">forQuery</text>
</g>
<!-- KeywordPortfolioEntry&#45;&gt;WebPage -->
<g id="edge5" class="edge">
<title>KeywordPortfolioEntry&#45;&gt;WebPage</title>
<path fill="none" stroke="#334155" d="M109.33,-240.39C129.81,-253.52 158.5,-271.24 184.75,-285 220.63,-303.81 262.35,-322.33 294.75,-336"/>
<polygon fill="#334155" stroke="#334155" points="293.35,-338.45 301.81,-338.96 295.51,-333.29 293.35,-338.45"/>
<text xml:space="preserve" text-anchor="middle" x="223.38" y="-322.8" font-family="Helvetica,sans-Serif" font-size="10.00">forWebPage</text>
</g>
<!-- SERPFeature -->
<g id="node6" class="node">
<title>SERPFeature</title>
<path fill="#f0f9ff" stroke="#0369a1" d="M398.38,-308C398.38,-308 301.38,-308 301.38,-308 295.38,-308 289.38,-302 289.38,-296 289.38,-296 289.38,-284 289.38,-284 289.38,-278 295.38,-272 301.38,-272 301.38,-272 398.38,-272 398.38,-272 404.38,-272 410.38,-278 410.38,-284 410.38,-284 410.38,-296 410.38,-296 410.38,-302 404.38,-308 398.38,-308"/>
<text xml:space="preserve" text-anchor="middle" x="349.88" y="-285.55" font-family="Helvetica,sans-Serif" font-size="11.00">seovoc:SERPFeature</text>
</g>
<!-- KeywordPortfolioEntry&#45;&gt;SERPFeature -->
<g id="edge6" class="edge">
<title>KeywordPortfolioEntry&#45;&gt;SERPFeature</title>
<path fill="none" stroke="#334155" d="M154.12,-240.49C193.36,-250.47 241.52,-262.71 280.14,-272.53"/>
<polygon fill="#334155" stroke="#334155" points="279.32,-275.21 287.76,-274.46 280.7,-269.78 279.32,-275.21"/>
<text xml:space="preserve" text-anchor="middle" x="223.38" y="-267.81" font-family="Helvetica,sans-Serif" font-size="10.00">hasSERPFeature</text>
</g>
<!-- TopicCluster -->
<g id="node7" class="node">
<title>TopicCluster</title>
<path fill="#f0f9ff" stroke="#0369a1" d="M393.88,-240C393.88,-240 305.88,-240 305.88,-240 299.88,-240 293.88,-234 293.88,-228 293.88,-228 293.88,-216 293.88,-216 293.88,-210 299.88,-204 305.88,-204 305.88,-204 393.88,-204 393.88,-204 399.88,-204 405.88,-210 405.88,-216 405.88,-216 405.88,-228 405.88,-228 405.88,-234 399.88,-240 393.88,-240"/>
<text xml:space="preserve" text-anchor="middle" x="349.88" y="-217.55" font-family="Helvetica,sans-Serif" font-size="11.00">seovoc:TopicCluster</text>
</g>
<!-- KeywordPortfolioEntry&#45;&gt;TopicCluster -->
<g id="edge7" class="edge">
<title>KeywordPortfolioEntry&#45;&gt;TopicCluster</title>
<path fill="none" stroke="#334155" d="M160.91,-222C200.24,-222 247.09,-222 284.18,-222"/>
<polygon fill="#334155" stroke="#334155" points="283.88,-224.8 291.88,-222 283.88,-219.2 283.88,-224.8"/>
<text xml:space="preserve" text-anchor="middle" x="223.38" y="-223.75" font-family="Helvetica,sans-Serif" font-size="10.00">hasTopicCluster</text>
</g>
<!-- SubTopic -->
<g id="node8" class="node">
<title>SubTopic</title>
<path fill="#f0f9ff" stroke="#0369a1" d="M386.38,-172C386.38,-172 313.38,-172 313.38,-172 307.38,-172 301.38,-166 301.38,-160 301.38,-160 301.38,-148 301.38,-148 301.38,-142 307.38,-136 313.38,-136 313.38,-136 386.38,-136 386.38,-136 392.38,-136 398.38,-142 398.38,-148 398.38,-148 398.38,-160 398.38,-160 398.38,-166 392.38,-172 386.38,-172"/>
<text xml:space="preserve" text-anchor="middle" x="349.88" y="-149.55" font-family="Helvetica,sans-Serif" font-size="11.00">seovoc:SubTopic</text>
</g>
<!-- KeywordPortfolioEntry&#45;&gt;SubTopic -->
<g id="edge8" class="edge">
<title>KeywordPortfolioEntry&#45;&gt;SubTopic</title>
<path fill="none" stroke="#334155" d="M154.12,-203.51C197.46,-192.49 251.69,-178.71 291.91,-168.48"/>
<polygon fill="#334155" stroke="#334155" points="292.51,-171.22 299.57,-166.53 291.13,-165.79 292.51,-171.22"/>
<text xml:space="preserve" text-anchor="middle" x="223.38" y="-195.84" font-family="Helvetica,sans-Serif" font-size="10.00">hasSubTopic</text>
</g>
<!-- JobToBeDone -->
<g id="node9" class="node">
<title>JobToBeDone</title>
<path fill="#f0f9ff" stroke="#0369a1" d="M398.38,-104C398.38,-104 301.38,-104 301.38,-104 295.38,-104 289.38,-98 289.38,-92 289.38,-92 289.38,-80 289.38,-80 289.38,-74 295.38,-68 301.38,-68 301.38,-68 398.38,-68 398.38,-68 404.38,-68 410.38,-74 410.38,-80 410.38,-80 410.38,-92 410.38,-92 410.38,-98 404.38,-104 398.38,-104"/>
<text xml:space="preserve" text-anchor="middle" x="349.88" y="-81.55" font-family="Helvetica,sans-Serif" font-size="11.00">seovoc:JobToBeDone</text>
</g>
<!-- KeywordPortfolioEntry&#45;&gt;JobToBeDone -->
<g id="edge9" class="edge">
<title>KeywordPortfolioEntry&#45;&gt;JobToBeDone</title>
<path fill="none" stroke="#334155" d="M109.31,-203.52C129.79,-190.32 158.48,-172.53 184.75,-158.75 220.47,-140.01 262.03,-121.62 294.39,-108.02"/>
<polygon fill="#334155" stroke="#334155" points="295.13,-110.74 301.43,-105.08 292.97,-105.58 295.13,-110.74"/>
<text xml:space="preserve" text-anchor="middle" x="223.38" y="-160.5" font-family="Helvetica,sans-Serif" font-size="10.00">hasJobToBeDone</text>
</g>
<!-- TaxonomyNode -->
<g id="node10" class="node">
<title>TaxonomyNode</title>
<path fill="#f0f9ff" stroke="#0369a1" d="M401.75,-36C401.75,-36 298,-36 298,-36 292,-36 286,-30 286,-24 286,-24 286,-12 286,-12 286,-6 292,0 298,0 298,0 401.75,0 401.75,0 407.75,0 413.75,-6 413.75,-12 413.75,-12 413.75,-24 413.75,-24 413.75,-30 407.75,-36 401.75,-36"/>
<text xml:space="preserve" text-anchor="middle" x="349.88" y="-13.55" font-family="Helvetica,sans-Serif" font-size="11.00">seovoc:TaxonomyNode</text>
</g>
<!-- KeywordPortfolioEntry&#45;&gt;TaxonomyNode -->
<g id="edge10" class="edge">
<title>KeywordPortfolioEntry&#45;&gt;TaxonomyNode</title>
<path fill="none" stroke="#334155" d="M94,-203.7C111.93,-178.71 146.83,-133.61 184.75,-103.75 218.28,-77.35 261.17,-55.27 294.7,-40.13"/>
<polygon fill="#334155" stroke="#334155" points="295.45,-42.86 301.62,-37.05 293.18,-37.74 295.45,-42.86"/>
<text xml:space="preserve" text-anchor="middle" x="223.38" y="-105.5" font-family="Helvetica,sans-Serif" font-size="10.00">inTaxonomyNode</text>
</g>
</g>
</svg>
